<svg viewBox="0 0 25 24" fill="none" xmlns="http://www.w3.org/2000/svg">
<path d="M13.3352 3.05282L17.7866 3.7193C20.1665 4.07541 21.3953 5.9766 21.0392 8.35357L20.0799 14.7674C19.7238 17.1444 17.9929 18.6029 15.612 18.2468L11.1616 17.5803C8.78173 17.2242 7.55286 15.3239 7.908 12.946L8.86832 6.53217C9.22346 4.1552 10.9622 2.69866 13.3352 3.05282Z" stroke="currentColor"  stroke-width="1.5"  stroke-linecap="round" stroke-linejoin="round"/>
<path d="M12.8382 8.85156L17.3333 9.49567M12.3223 12.4472L15.0193 12.8344" stroke="currentColor"  stroke-width="1.5"  stroke-linecap="round" stroke-linejoin="round"/>
<path d="M9.01798 5.875L6.15744 6.81976C3.86901 7.57284 2.96998 9.65305 3.73279 11.9415L5.75755 18.0985C6.5116 20.3781 8.46436 21.5223 10.7431 20.7693L15.03 19.3614C15.748 19.1347 16.3464 18.7533 16.7823 18.2716" stroke="currentColor"  stroke-width="1.5"  stroke-linecap="round" stroke-linejoin="round"/>
</svg>