<svg viewBox="0 0 25 24" fill="none" xmlns="http://www.w3.org/2000/svg">
<path d="M15.2124 3.87898L16.0306 5.66377H18.67C19.4815 5.66377 20.1394 6.32166 20.1394 7.1332V8.2214C20.1394 8.77625 19.6896 9.22605 19.1348 9.22605H5.36501C4.81015 9.22605 4.36035 8.77625 4.36035 8.2214V7.1332C4.36035 6.32166 5.01823 5.66377 5.82978 5.66377H8.4692L9.2874 3.87898C9.53294 3.34338 10.0681 3 10.6573 3H13.8425C14.4317 3 14.9668 3.34338 15.2124 3.87898Z" stroke="currentColor"  stroke-width="1.5"  stroke-linecap="round" stroke-linejoin="round"/>
<path d="M18.6004 9.30078V17.9865C18.6004 19.6511 17.2677 21.0005 15.6238 21.0005H8.87696C7.23305 21.0005 5.90039 19.6511 5.90039 17.9865V9.30078" stroke="currentColor"  stroke-width="1.5"  stroke-linecap="round" stroke-linejoin="round"/>
<path d="M10.5596 12.8164V17.3248M13.94 12.8164V17.3248" stroke="currentColor"  stroke-width="1.5"  stroke-linecap="round" stroke-linejoin="round"/>
</svg>