<svg  viewBox="0 0 24 24" fill="none" stroke="currentColor" xmlns="http://www.w3.org/2000/svg">
<path d="M14.7905 3H9.20951C8.61114 3 8.03611 3.23741 7.61286 3.66162L3.66162 7.61286C3.23838 8.03611 3 8.61016 3 9.20854V14.7905C3 15.3889 3.23838 15.9639 3.66162 16.3871L7.61286 20.3384C8.03611 20.7616 8.61114 21 9.20951 21H14.7905C15.3898 21 15.9639 20.7616 16.3871 20.3384L20.3394 16.3871C20.7626 15.9639 21 15.3889 21 14.7905V9.20854C21 8.61016 20.7626 8.03611 20.3394 7.61286L16.3871 3.66162C15.9639 3.23741 15.3898 3 14.7905 3Z" stroke-width="2"  stroke-linecap="round" stroke-linejoin="round"/>
<path d="M12 8.10742V11.9993M12 15.7412V15.6935"   stroke-width="2"  stroke-linecap="round" stroke-linejoin="round"/>
</svg>