<svg viewBox="0 0 24 24" fill="none" xmlns="http://www.w3.org/2000/svg">
<path d="M10.9619 20.2262L12.8991 20.1367C13.298 20.1182 13.6677 19.9198 13.9051 19.5977L20.6324 10.4438C21.2512 9.6022 21.0702 8.41807 20.2286 7.79925L18.7127 6.68518C17.871 6.06734 16.6869 6.24831 16.0681 7.08995L9.34086 16.2448C9.10443 16.5668 9.02562 16.9784 9.12778 17.3647L9.62011 19.2406C9.77871 19.8439 10.3382 20.2554 10.9619 20.2262Z" stroke="currentColor"  stroke-width="2"  stroke-linecap="round" stroke-linejoin="round"/>
<path d="M14.668 8.99609L19.2323 12.35" stroke="currentColor"  stroke-width="2"  stroke-linecap="round" stroke-linejoin="round"/>
<path d="M6.79185 19.4424C3.48175 19.1359 1.8014 15.0289 3.97992 12.5031C5.11539 11.1866 6.85996 10.7682 8.24647 9.80888C9.55611 8.90205 10.5787 7.44257 10.0484 5.79725C9.65146 4.56837 8.5082 3.84933 7.21315 3.77344" stroke="currentColor"  stroke-width="2"  stroke-linecap="round" stroke-linejoin="round"/>
</svg>