<svg viewBox="0 0 24 24" fill="none" xmlns="http://www.w3.org/2000/svg">
<path fill-rule="evenodd" clip-rule="evenodd" d="M21.154 5.64097C19.951 5.25097 19.001 4.30297 18.612 3.10197C18.479 2.68997 17.794 2.68997 17.661 3.10197C17.272 4.30297 16.322 5.25097 15.119 5.64097C14.913 5.70797 14.773 5.89997 14.773 6.11697C14.773 6.33297 14.913 6.52497 15.119 6.59197C16.32 6.98097 17.27 7.93397 17.661 9.14097C17.727 9.34697 17.92 9.48697 18.136 9.48697C18.353 9.48697 18.546 9.34697 18.612 9.14097C19.003 7.93397 19.953 6.98097 21.154 6.59197C21.36 6.52497 21.5 6.33297 21.5 6.11697C21.5 5.89997 21.36 5.70797 21.154 5.64097Z" fill="currentColor" />
<path fill-rule="evenodd" clip-rule="evenodd" d="M17.574 12.4012L12.841 10.8642L11.305 6.13215C11.173 5.72215 10.807 5.45715 10.375 5.45715C9.942 5.45715 9.577 5.72215 9.444 6.13215L7.921 10.8612L3.179 12.4002C2.773 12.5292 2.5 12.9032 2.5 13.3322C2.5 13.7602 2.773 14.1342 3.177 14.2622L7.906 15.7912L9.444 20.5312C9.577 20.9412 9.942 21.2072 10.375 21.2072C10.807 21.2072 11.173 20.9412 11.305 20.5312L12.83 15.8022L17.571 14.2632C17.977 14.1342 18.251 13.7602 18.251 13.3322C18.251 12.9032 17.977 12.5292 17.574 12.4012Z" fill="currentColor" />
</svg>